<svg width="1440" height="4211" viewBox="0 0 1440 4211" fill="none" xmlns="http://www.w3.org/2000/svg">
<path d="M69.88 1045.47C107.106 778.402 59.0415 692.175 59.0415 692.175C59.0415 692.175 7.00089 681.387 -52.4595 681.387C-118.158 681.387 -172.866 692.175 -172.866 692.175C-172.866 692.175 -232.335 836.2 -183.974 1111.75L-103.867 1111.75L-103.867 1134.46" fill="#FAFAFA"/>
<path d="M69.88 1045.47C107.106 778.402 59.0415 692.175 59.0415 692.175C59.0415 692.175 7.00089 681.387 -52.4595 681.387C-118.158 681.387 -172.866 692.175 -172.866 692.175C-172.866 692.175 -232.335 836.2 -183.974 1111.75L-103.867 1111.75L-103.867 1134.46" stroke="#BDBDBD" stroke-width="1.48983" stroke-miterlimit="3.864"/>
<path d="M37.2804 1665.57C37.2804 1665.57 40.8847 1749.01 58.1471 1782.59C58.1471 1782.59 60.6036 1787.15 63.2457 1782.73C80.5081 1749.14 83.9607 1665.57 83.9607 1665.57L37.2804 1665.57Z" fill="url(#paint0_linear_6975_181530)" stroke="#BDBDBD" stroke-width="1.48983" stroke-miterlimit="3.864"/>
<path d="M80.2743 782.155C26.0729 784.949 -4.59432 785.599 -58.8633 785.126C-110.921 784.662 -140.296 783.547 -192.244 780.078" stroke="#BDBDBD" stroke-width="1.48983" stroke-miterlimit="3.864"/>
<path d="M449.632 1664.77L-144.465 1664.77L-1585.11 2103.88L-1593.48 2105.64L-1593.33 2101.81C-1601.39 1896.26 -1494.71 1853.58 -1494.71 1853.58C-1494.71 1853.58 352.194 899.754 395.979 874.675C395.979 874.675 425.862 866.732 433.948 809.787L448.045 712.586" fill="#FAFAFA"/>
<path d="M449.632 1664.77L-144.465 1664.77L-1585.11 2103.88L-1593.48 2105.64L-1593.33 2101.81C-1601.39 1896.26 -1494.71 1853.58 -1494.71 1853.58C-1494.71 1853.58 352.194 899.754 395.979 874.675C395.979 874.675 425.862 866.732 433.948 809.787L448.045 712.586" stroke="#BDBDBD" stroke-width="1.48983" stroke-miterlimit="3.864"/>
<path d="M405.189 870.156L445.547 1086.85" stroke="#BDBDBD" stroke-width="1.48983"/>
<path d="M447.49 1592.12L-145.197 1592.12L-1084.37 1930.99L-1084.37 1951.49" stroke="#BDBDBD" stroke-width="1.48983" stroke-miterlimit="3.864"/>
<path d="M-129.087 1593.29L-129.087 1496.44L105.817 1496.44L105.817 1593.29" stroke="#BDBDBD" stroke-width="1.48983" stroke-miterlimit="3.864"/>
<path d="M71.1284 728.691C20.869 717.937 -8.46464 714.67 -59.8551 714.122C-107.709 713.632 -135.033 715.903 -182.152 724.31" stroke="#BDBDBD" stroke-width="1.48983" stroke-miterlimit="3.864"/>
<path d="M-9.74205 1086.23L20.2161 1140.03L416.804 940.314L403.644 872.117" stroke="#BDBDBD" stroke-width="1.48983" stroke-linejoin="round"/>
<path d="M1370.66 1045.35C1333.44 778.29 1381.5 692.045 1381.5 692.045C1381.5 692.045 1433.54 681.266 1493.01 681.266C1558.71 681.266 1613.41 692.045 1613.41 692.045C1613.41 692.045 1672.87 836.079 1624.53 1111.62L1544.41 1111.62L1544.41 1132.18" fill="#FAFAFA"/>
<path d="M1370.66 1045.35C1333.44 778.29 1381.5 692.045 1381.5 692.045C1381.5 692.045 1433.54 681.266 1493.01 681.266C1558.71 681.266 1613.41 692.045 1613.41 692.045C1613.41 692.045 1672.87 836.079 1624.53 1111.62L1544.41 1111.62L1544.41 1132.18" stroke="#BDBDBD" stroke-width="1.48983" stroke-miterlimit="3.864"/>
<path d="M1403.02 1665.57C1403.02 1665.57 1399.41 1749.01 1382.15 1782.59C1382.15 1782.59 1379.7 1787.15 1377.08 1782.73C1359.82 1749.14 1356.35 1665.57 1356.35 1665.57L1403.02 1665.57Z" fill="url(#paint1_linear_6975_181530)" stroke="#BDBDBD" stroke-width="1.48983" stroke-miterlimit="3.864"/>
<path d="M1360.52 782.085C1414.63 784.846 1445.25 785.479 1499.43 784.998C1551.48 784.525 1580.87 783.411 1632.81 779.941" stroke="#BDBDBD" stroke-width="1.48983" stroke-miterlimit="3.864"/>
<path d="M991.384 1665L1585.52 1665L3026.12 2104.1L3030.08 2104.24L3032.34 2105.93L3033.61 2101.82C3041.69 1896.25 2935 1853.59 2935 1853.59C2935 1853.59 1090.19 898.978 1046.44 873.915C1046.44 873.915 1012.8 862.309 1004.68 809.779L989.991 712.586" fill="#FAFAFA"/>
<path d="M991.384 1665L1585.52 1665L3026.12 2104.1L3030.08 2104.24L3032.34 2105.93L3033.61 2101.82C3041.69 1896.25 2935 1853.59 2935 1853.59C2935 1853.59 1090.19 898.978 1046.44 873.915C1046.44 873.915 1012.8 862.309 1004.68 809.779L989.991 712.586" stroke="#BDBDBD" stroke-width="1.48983" stroke-miterlimit="3.864"/>
<path d="M1035.12 870.164L990.356 1086.86" stroke="#BDBDBD" stroke-width="1.48983"/>
<path d="M1449.64 1086.23L1419.69 1140.03L1020.55 939.609L1036.26 872.121" stroke="#BDBDBD" stroke-width="1.48983" stroke-linejoin="round"/>
<path d="M988.311 1592.12L1585.52 1592.12L2524.67 1930.99L2524.67 1951.49" stroke="#BDBDBD" stroke-width="1.48983" stroke-miterlimit="3.864"/>
<path d="M1569.37 1593.29L1569.37 1496.45L1334.49 1496.45L1334.49 1593.29" stroke="#BDBDBD" stroke-width="1.48983" stroke-miterlimit="3.864"/>
<path d="M994.33 1592.12L1585.51 1592.12L2524.67 1930.99L2524.67 1951.49" stroke="#BDBDBD" stroke-width="1.48983" stroke-miterlimit="3.864"/>
<path d="M1368.69 728.715C1419.21 717.834 1448.71 714.533 1500.38 714.01C1548.25 713.512 1575.56 715.791 1622.69 724.19" stroke="#BDBDBD" stroke-width="1.48983" stroke-miterlimit="3.864"/>
<path d="M448.848 1256.2L453.286 1256.2C453.56 1256.2 453.928 1256.36 454.365 1256.85C454.797 1257.33 455.225 1258.07 455.603 1259.04C456.357 1260.98 456.854 1263.67 456.854 1266.62L456.854 1277.54C456.854 1280.5 456.401 1283.1 455.696 1284.94C455.342 1285.86 454.94 1286.55 454.532 1287C454.124 1287.44 453.768 1287.59 453.48 1287.59L448.848 1287.59L448.848 1256.2Z" stroke="#BDBDBD" stroke-width="1.48983"/>
<path d="M448.848 1326.61L453.286 1326.61C453.56 1326.61 453.929 1326.77 454.365 1327.26C454.797 1327.74 455.225 1328.48 455.603 1329.45C456.357 1331.38 456.854 1334.08 456.854 1337.03L456.854 1347.95C456.854 1350.91 456.401 1353.52 455.696 1355.35C455.342 1356.28 454.94 1356.97 454.531 1357.42C454.124 1357.86 453.767 1358.01 453.48 1358.01L448.848 1358.01L448.848 1326.61Z" stroke="#BDBDBD" stroke-width="1.48983"/>
<path d="M448.848 1395.35L453.286 1395.35C453.56 1395.35 453.929 1395.5 454.365 1395.99C454.797 1396.48 455.225 1397.22 455.603 1398.19C456.357 1400.12 456.854 1402.81 456.854 1405.76L456.854 1416.68C456.854 1419.64 456.401 1422.24 455.696 1424.08C455.342 1425 454.94 1425.69 454.532 1426.14C454.124 1426.58 453.768 1426.73 453.48 1426.73L448.848 1426.73L448.848 1395.35Z" stroke="#BDBDBD" stroke-width="1.48983"/>
<path d="M448.848 1465.75L453.286 1465.75C453.56 1465.75 453.928 1465.9 454.365 1466.39C454.797 1466.88 455.225 1467.62 455.603 1468.59C456.357 1470.52 456.854 1473.22 456.854 1476.17L456.854 1487.09C456.854 1490.05 456.401 1492.65 455.696 1494.49C455.342 1495.41 454.94 1496.1 454.532 1496.54C454.124 1496.99 453.768 1497.14 453.48 1497.14L448.848 1497.14L448.848 1465.75Z" stroke="#BDBDBD" stroke-width="1.48983"/>
<path d="M448.848 1534.49L453.286 1534.49C453.561 1534.49 453.929 1534.64 454.366 1535.13C454.797 1535.61 455.226 1536.35 455.603 1537.32C456.357 1539.25 456.854 1541.94 456.854 1544.89L456.854 1555.82C456.854 1558.78 456.401 1561.38 455.696 1563.22C455.342 1564.14 454.94 1564.83 454.531 1565.28C454.124 1565.73 453.767 1565.88 453.48 1565.88L448.848 1565.88L448.848 1534.49Z" stroke="#BDBDBD" stroke-width="1.48983"/>
<path d="M448.848 1604.89L453.286 1604.89C453.56 1604.89 453.929 1605.05 454.365 1605.54C454.797 1606.02 455.225 1606.76 455.603 1607.73C456.357 1609.66 456.854 1612.36 456.854 1615.31L456.854 1626.22C456.854 1629.18 456.401 1631.79 455.696 1633.63C455.342 1634.56 454.939 1635.25 454.531 1635.7C454.123 1636.14 453.767 1636.29 453.48 1636.29L448.848 1636.29L448.848 1604.89Z" stroke="#BDBDBD" stroke-width="1.48983"/>
<path d="M448.848 1676.83L453.286 1676.83C453.56 1676.83 453.928 1676.98 454.365 1677.48C454.797 1677.96 455.225 1678.7 455.603 1679.67C456.357 1681.6 456.854 1684.3 456.854 1687.25L456.854 1698.17C456.854 1701.13 456.401 1703.73 455.696 1705.57C455.342 1706.5 454.94 1707.19 454.531 1707.63C454.124 1708.08 453.767 1708.23 453.48 1708.23L448.848 1708.23L448.848 1676.83Z" stroke="#BDBDBD" stroke-width="1.48983"/>
<path d="M448.848 1750.46L453.286 1750.46C453.561 1750.46 453.929 1750.61 454.366 1751.1C454.797 1751.58 455.226 1752.32 455.603 1753.29C456.357 1755.22 456.855 1757.91 456.855 1760.87L456.855 1771.78C456.855 1774.75 456.401 1777.35 455.696 1779.19C455.342 1780.11 454.94 1780.8 454.531 1781.25C454.124 1781.7 453.767 1781.84 453.48 1781.84L448.848 1781.84L448.848 1750.46Z" stroke="#BDBDBD" stroke-width="1.48983"/>
<path d="M448.848 1819.99L453.286 1819.99C453.561 1819.99 453.929 1820.14 454.366 1820.63C454.797 1821.12 455.226 1821.86 455.603 1822.82C456.357 1824.75 456.855 1827.45 456.855 1830.41L456.855 1841.32C456.855 1844.28 456.401 1846.88 455.696 1848.72C455.342 1849.64 454.94 1850.33 454.532 1850.78C454.124 1851.22 453.768 1851.37 453.48 1851.37L448.848 1851.37L448.848 1819.99Z" stroke="#BDBDBD" stroke-width="1.48983"/>
<path d="M448.848 1894.01L453.286 1894.01C453.56 1894.01 453.929 1894.16 454.365 1894.65C454.797 1895.13 455.225 1895.87 455.603 1896.84C456.357 1898.77 456.855 1901.47 456.855 1904.42L456.855 1915.34C456.855 1918.3 456.401 1920.9 455.696 1922.75C455.342 1923.67 454.939 1924.36 454.531 1924.81C454.123 1925.26 453.767 1925.4 453.48 1925.4L448.848 1925.4L448.848 1894.01Z" stroke="#BDBDBD" stroke-width="1.48983"/>
<path d="M448.848 1966.19L453.286 1966.19C453.56 1966.19 453.928 1966.34 454.365 1966.83C454.797 1967.32 455.225 1968.06 455.603 1969.03C456.357 1970.96 456.855 1973.66 456.855 1976.61L456.855 1987.53C456.855 1990.49 456.401 1993.09 455.696 1994.93C455.342 1995.85 454.94 1996.55 454.531 1996.99C454.124 1997.44 453.767 1997.59 453.48 1997.59L448.848 1997.59L448.848 1966.19Z" stroke="#BDBDBD" stroke-width="1.48983"/>
<path d="M451.097 2034.77L455.535 2034.77C455.81 2034.77 456.179 2034.92 456.615 2035.41C457.047 2035.89 457.475 2036.63 457.853 2037.6C458.606 2039.53 459.104 2042.23 459.104 2045.18L459.104 2056.1C459.104 2059.06 458.65 2061.66 457.945 2063.5C457.592 2064.42 457.189 2065.11 456.781 2065.56C456.373 2066 456.017 2066.15 455.729 2066.15L451.097 2066.15L451.097 2034.77Z" stroke="#BDBDBD" stroke-width="1.48983"/>
<path d="M448.848 2107.41L453.286 2107.41C453.56 2107.41 453.928 2107.57 454.365 2108.06C454.797 2108.54 455.225 2109.28 455.603 2110.25C456.357 2112.19 456.854 2114.88 456.854 2117.84L456.854 2128.75C456.854 2131.71 456.401 2134.32 455.696 2136.16C455.342 2137.08 454.94 2137.77 454.531 2138.22C454.124 2138.66 453.767 2138.81 453.48 2138.81L448.848 2138.81L448.848 2107.41Z" stroke="#BDBDBD" stroke-width="1.48983"/>
<path d="M448.848 2182.71L453.286 2182.71C453.56 2182.71 453.929 2182.86 454.365 2183.35C454.797 2183.84 455.225 2184.58 455.603 2185.55C456.357 2187.48 456.854 2190.17 456.854 2193.12L456.854 2204.04C456.854 2207 456.401 2209.6 455.696 2211.44C455.342 2212.36 454.94 2213.05 454.532 2213.5C454.124 2213.94 453.768 2214.09 453.48 2214.09L448.848 2214.09L448.848 2182.71Z" stroke="#BDBDBD" stroke-width="1.48983"/>
<path d="M455.173 2284.11L450.541 2284.11L450.541 2252.72L454.979 2252.72C455.25 2252.72 455.617 2252.87 456.053 2253.37C456.484 2253.85 456.912 2254.59 457.289 2255.56C458.042 2257.49 458.539 2260.19 458.539 2263.14L458.539 2274.06C458.539 2277.02 458.088 2279.62 457.385 2281.46C457.032 2282.38 456.631 2283.07 456.223 2283.52C455.817 2283.96 455.461 2284.11 455.173 2284.11Z" stroke="#BDBDBD" stroke-width="1.48983"/>
<path d="M448.848 2327.06L453.286 2327.06C453.56 2327.06 453.928 2327.21 454.365 2327.7C454.797 2328.19 455.225 2328.93 455.603 2329.9C456.357 2331.83 456.854 2334.53 456.854 2337.48L456.854 2348.39C456.854 2351.36 456.401 2353.96 455.696 2355.8C455.342 2356.72 454.94 2357.41 454.531 2357.86C454.124 2358.31 453.767 2358.45 453.48 2358.45L448.848 2358.45L448.848 2327.06Z" stroke="#BDBDBD" stroke-width="1.48983"/>
<path d="M448.103 1174.73L453.286 1174.73C455.565 1174.73 457.599 1179.84 457.599 1185.89L457.599 1196.8C457.599 1202.86 455.751 1207.6 453.48 1207.6L448.103 1207.6L448.103 1174.73Z" stroke="#BDBDBD" stroke-width="1.48983" stroke-miterlimit="3.864"/>
<path d="M448.848 1064.89L453.286 1064.89C453.56 1064.89 453.928 1065.04 454.365 1065.53C454.797 1066.02 455.225 1066.76 455.603 1067.73C456.357 1069.66 456.854 1072.36 456.854 1075.31L456.854 1086.23C456.854 1089.19 456.401 1091.79 455.696 1093.63C455.342 1094.55 454.94 1095.24 454.532 1095.69C454.124 1096.13 453.768 1096.28 453.48 1096.28L448.848 1096.28L448.848 1064.89Z" stroke="#BDBDBD" stroke-width="1.48983"/>
<path d="M448.848 969.764L453.286 969.764C453.56 969.764 453.928 969.918 454.365 970.409C454.797 970.894 455.225 971.635 455.603 972.604C456.357 974.538 456.854 977.235 456.854 980.187L456.854 991.102C456.854 994.062 456.401 996.666 455.696 998.503C455.342 999.423 454.94 1000.11 454.532 1000.56C454.124 1001.01 453.768 1001.15 453.48 1001.15L448.848 1001.15L448.848 969.764Z" stroke="#BDBDBD" stroke-width="1.48983"/>
<path d="M448.848 897.679L453.286 897.679C453.56 897.679 453.929 897.832 454.365 898.322C454.797 898.806 455.225 899.546 455.603 900.514C456.357 902.446 456.854 905.141 456.854 908.093L456.854 919.007C456.854 921.968 456.401 924.576 455.696 926.417C455.342 927.34 454.939 928.032 454.531 928.481C454.123 928.929 453.767 929.076 453.48 929.076L448.848 929.076L448.848 897.679Z" stroke="#BDBDBD" stroke-width="1.48983"/>
<path d="M448.848 824.874L453.286 824.874C453.56 824.874 453.929 825.028 454.365 825.517C454.797 826.002 455.225 826.741 455.603 827.71C456.357 829.641 456.854 832.336 456.854 835.288L456.854 846.203C456.854 849.163 456.401 851.767 455.696 853.604C455.342 854.524 454.94 855.214 454.531 855.661C454.124 856.107 453.768 856.254 453.48 856.254L448.848 856.254L448.848 824.874Z" stroke="#BDBDBD" stroke-width="1.48983"/>
<path d="M448.848 751.081L453.286 751.081C453.56 751.081 453.929 751.235 454.365 751.724C454.797 752.209 455.225 752.948 455.603 753.917C456.357 755.848 456.854 758.543 456.854 761.495L456.854 772.418C456.854 775.379 456.401 777.985 455.696 779.824C455.342 780.746 454.939 781.436 454.531 781.884C454.123 782.331 453.767 782.478 453.48 782.478L448.848 782.478L448.848 751.081Z" stroke="#BDBDBD" stroke-width="1.48983"/>
<path d="M448.848 678.526L453.286 678.526C453.56 678.526 453.928 678.68 454.365 679.17C454.797 679.656 455.225 680.397 455.603 681.366C456.357 683.3 456.854 685.997 456.854 688.949L456.854 699.864C456.854 702.824 456.401 705.428 455.696 707.264C455.342 708.185 454.94 708.875 454.531 709.322C454.124 709.768 453.768 709.915 453.48 709.915L448.848 709.915L448.848 678.526Z" stroke="#BDBDBD" stroke-width="1.48983"/>
<path d="M897.465 3468.7C900.706 3484.86 910.692 3510.13 940.929 3530.07C989.272 3561.95 1518.95 3904.92 1518.95 3904.92C1518.95 3904.92 1563.96 3931.38 1563.85 3968.71L1563.85 4103.53L828.179 3940.48" fill="#FAFAFA"/>
<path d="M897.465 3468.7C900.706 3484.86 910.692 3510.13 940.929 3530.07C989.272 3561.95 1518.95 3904.92 1518.95 3904.92C1518.95 3904.92 1563.96 3931.38 1563.85 3968.71L1563.85 4103.53L828.179 3940.48" stroke="#BDBDBD" stroke-miterlimit="3.864"/>
<path d="M538.076 3468.7C534.834 3484.86 524.849 3510.13 494.612 3530.07C446.269 3561.95 -83.4131 3904.92 -83.4131 3904.92C-83.4131 3904.92 -128.422 3931.38 -128.312 3968.71L-128.312 4103.53L607.362 3940.48" fill="#FAFAFA"/>
<path d="M538.076 3468.7C534.834 3484.86 524.849 3510.13 494.612 3530.07C446.269 3561.95 -83.4131 3904.92 -83.4131 3904.92C-83.4131 3904.92 -128.422 3931.38 -128.312 3968.71L-128.312 4103.53L607.362 3940.48" stroke="#BDBDBD" stroke-miterlimit="3.864"/>
<path d="M588.343 3727.59L309.452 3836.06L281.663 3756.83L572.263 3596.91" stroke="#BDBDBD" stroke-width="1.48983" stroke-miterlimit="3.864"/>
<path d="M849.912 3727.59L1128.81 3836.06L1156.59 3756.83L866.001 3596.91" stroke="#BDBDBD" stroke-width="1.48983" stroke-miterlimit="3.864"/>
<path d="M448.116 1255.46L453.299 1255.46C455.578 1255.46 457.613 1260.57 457.613 1266.62L457.613 1277.54C457.613 1283.59 455.764 1288.34 453.494 1288.34L448.116 1288.34L448.116 1255.46Z" stroke="#BDBDBD" stroke-width="1.48983" stroke-miterlimit="3.864"/>
<path d="M448.116 1325.87L453.299 1325.87C455.578 1325.87 457.613 1330.97 457.613 1337.03L457.613 1347.95C457.613 1354 455.764 1358.75 453.494 1358.75L448.116 1358.75L448.116 1325.87Z" stroke="#BDBDBD" stroke-width="1.48983" stroke-miterlimit="3.864"/>
<path d="M448.116 1394.61L453.299 1394.61C455.578 1394.61 457.613 1399.72 457.613 1405.77L457.613 1416.68C457.613 1422.74 455.764 1427.48 453.494 1427.48L448.116 1427.48L448.116 1394.61Z" stroke="#BDBDBD" stroke-width="1.48983" stroke-miterlimit="3.864"/>
<path d="M448.116 1465.01L453.299 1465.01C455.578 1465.01 457.613 1470.12 457.613 1476.18L457.613 1487.09C457.613 1493.14 455.764 1497.89 453.494 1497.89L448.116 1497.89L448.116 1465.01Z" stroke="#BDBDBD" stroke-width="1.48983" stroke-miterlimit="3.864"/>
<path d="M448.116 1533.74L453.299 1533.74C455.578 1533.74 457.613 1538.84 457.613 1544.89L457.613 1555.82C457.613 1561.87 455.764 1566.62 453.494 1566.62L448.116 1566.62L448.116 1533.74Z" stroke="#BDBDBD" stroke-width="1.48983" stroke-miterlimit="3.864"/>
<path d="M448.116 1604.15L453.299 1604.15C455.578 1604.15 457.613 1609.26 457.613 1615.31L457.613 1626.23C457.613 1632.28 455.764 1637.04 453.494 1637.04L448.116 1637.04L448.116 1604.15Z" stroke="#BDBDBD" stroke-width="1.48983" stroke-miterlimit="3.864"/>
<path d="M448.116 1676.09L453.299 1676.09C455.578 1676.09 457.613 1681.2 457.613 1687.25L457.613 1698.17C457.613 1704.22 455.764 1708.97 453.494 1708.97L448.116 1708.97L448.116 1676.09Z" stroke="#BDBDBD" stroke-width="1.48983" stroke-miterlimit="3.864"/>
<path d="M448.116 1749.71L453.299 1749.71C455.578 1749.71 457.613 1754.81 457.613 1760.87L457.613 1771.78C457.613 1777.84 455.764 1782.59 453.494 1782.59L448.116 1782.59L448.116 1749.71Z" stroke="#BDBDBD" stroke-width="1.48983" stroke-miterlimit="3.864"/>
<path d="M448.116 1819.25L453.299 1819.25C455.578 1819.25 457.613 1824.35 457.613 1830.41L457.613 1841.32C457.613 1847.38 455.764 1852.12 453.494 1852.12L448.116 1852.12L448.116 1819.25Z" stroke="#BDBDBD" stroke-width="1.48983" stroke-miterlimit="3.864"/>
<path d="M448.116 1893.27L453.299 1893.27C455.578 1893.27 457.613 1898.37 457.613 1904.42L457.613 1915.34C457.613 1921.39 455.764 1926.15 453.494 1926.15L448.116 1926.15L448.116 1893.27Z" stroke="#BDBDBD" stroke-width="1.48983" stroke-miterlimit="3.864"/>
<path d="M448.116 1965.45L453.299 1965.45C455.578 1965.45 457.613 1970.56 457.613 1976.62L457.613 1987.53C457.613 1993.58 455.764 1998.34 453.494 1998.34L448.116 1998.34L448.116 1965.45Z" stroke="#BDBDBD" stroke-width="1.48983" stroke-miterlimit="3.864"/>
<path d="M450.36 2034.03L455.543 2034.03C457.822 2034.03 459.856 2039.13 459.856 2045.19L459.856 2056.1C459.856 2062.15 458.008 2066.9 455.737 2066.9L450.36 2066.9L450.36 2034.03Z" stroke="#BDBDBD" stroke-width="1.48983" stroke-miterlimit="3.864"/>
<path d="M448.116 2106.67L453.299 2106.67C455.578 2106.67 457.613 2111.79 457.613 2117.84L457.613 2128.75C457.613 2134.81 455.764 2139.56 453.494 2139.56L448.116 2139.56L448.116 2106.67Z" stroke="#BDBDBD" stroke-width="1.48983" stroke-miterlimit="3.864"/>
<path d="M448.116 2181.96L453.299 2181.96C455.578 2181.96 457.613 2187.07 457.613 2193.12L457.613 2204.04C457.613 2210.09 455.764 2214.84 453.494 2214.84L448.116 2214.84L448.116 2181.96Z" stroke="#BDBDBD" stroke-width="1.48983" stroke-miterlimit="3.864"/>
<path d="M449.79 2251.98L454.981 2251.98C457.252 2251.98 459.286 2257.09 459.286 2263.14L459.286 2274.06C459.286 2280.11 457.446 2284.86 455.175 2284.86L449.798 2284.86L449.798 2251.98L449.79 2251.98Z" stroke="#BDBDBD" stroke-width="1.48983" stroke-miterlimit="3.864"/>
<path d="M448.116 2326.31L453.299 2326.31C455.578 2326.31 457.613 2331.43 457.613 2337.48L457.613 2348.39C457.613 2354.45 455.764 2359.2 453.494 2359.2L448.116 2359.2L448.116 2326.31Z" stroke="#BDBDBD" stroke-width="1.48983" stroke-miterlimit="3.864"/>
<path d="M448.861 2399.46L453.299 2399.46C453.573 2399.46 453.942 2399.62 454.378 2400.11C454.81 2400.59 455.239 2401.33 455.617 2402.3C456.371 2404.24 456.868 2406.93 456.868 2409.89L456.868 2420.8C456.868 2423.76 456.415 2426.37 455.709 2428.21C455.356 2429.13 454.953 2429.82 454.545 2430.27C454.137 2430.71 453.781 2430.86 453.494 2430.86L448.861 2430.86L448.861 2399.46Z" stroke="#BDBDBD" stroke-width="1.48983"/>
<path d="M448.116 2398.72L453.299 2398.72C455.578 2398.72 457.613 2403.83 457.613 2409.89L457.613 2420.8C457.613 2426.85 455.764 2431.61 453.494 2431.61L448.116 2431.61L448.116 2398.72Z" stroke="#BDBDBD" stroke-width="1.48983" stroke-miterlimit="3.864"/>
<path d="M448.861 2467.8L453.299 2467.8C453.574 2467.8 453.942 2467.95 454.379 2468.44C454.811 2468.92 455.239 2469.66 455.617 2470.63C456.371 2472.56 456.868 2475.26 456.868 2478.21L456.868 2489.12C456.868 2492.08 456.415 2494.69 455.709 2496.53C455.356 2497.45 454.953 2498.14 454.545 2498.58C454.138 2499.03 453.781 2499.18 453.494 2499.18L448.861 2499.18L448.861 2467.8Z" stroke="#BDBDBD" stroke-width="1.48983"/>
<path d="M448.116 2467.05L453.299 2467.05C455.578 2467.05 457.613 2472.16 457.613 2478.21L457.613 2489.12C457.613 2495.18 455.764 2499.92 453.494 2499.92L448.116 2499.92L448.116 2467.05Z" stroke="#BDBDBD" stroke-width="1.48983" stroke-miterlimit="3.864"/>
<path d="M448.861 2540.46L453.299 2540.46C453.574 2540.46 453.943 2540.61 454.379 2541.1C454.811 2541.59 455.239 2542.32 455.617 2543.29C456.371 2545.22 456.868 2547.92 456.868 2550.87L456.868 2561.79C456.868 2564.75 456.415 2567.35 455.709 2569.19C455.356 2570.11 454.953 2570.8 454.545 2571.25C454.138 2571.69 453.781 2571.84 453.494 2571.84L448.861 2571.84L448.861 2540.46Z" stroke="#BDBDBD" stroke-width="1.48983"/>
<path d="M448.116 2539.71L453.299 2539.71C455.578 2539.71 457.613 2544.81 457.613 2550.87L457.613 2561.79C457.613 2567.84 455.764 2572.59 453.494 2572.59L448.116 2572.59L448.116 2539.71Z" stroke="#BDBDBD" stroke-width="1.48983" stroke-miterlimit="3.864"/>
<path d="M448.861 2616.46L453.299 2616.46C453.574 2616.46 453.942 2616.62 454.379 2617.11C454.811 2617.59 455.239 2618.33 455.617 2619.3C456.371 2621.23 456.868 2623.93 456.868 2626.89L456.868 2637.8C456.868 2640.76 456.415 2643.37 455.709 2645.2C455.356 2646.12 454.953 2646.81 454.545 2647.26C454.138 2647.71 453.781 2647.85 453.494 2647.85L448.861 2647.85L448.861 2616.46Z" stroke="#BDBDBD" stroke-width="1.48983"/>
<path d="M448.116 2615.72L453.299 2615.72C455.578 2615.72 457.613 2620.83 457.613 2626.89L457.613 2637.8C457.613 2643.85 455.764 2648.6 453.494 2648.6L448.116 2648.6L448.116 2615.72Z" stroke="#BDBDBD" stroke-width="1.48983" stroke-miterlimit="3.864"/>
<path d="M448.861 2687.11L453.299 2687.11C453.574 2687.11 453.942 2687.27 454.379 2687.76C454.811 2688.24 455.239 2688.98 455.617 2689.95C456.371 2691.88 456.868 2694.57 456.868 2697.53L456.868 2708.44C456.868 2711.4 456.415 2714.01 455.709 2715.84C455.356 2716.76 454.953 2717.45 454.545 2717.9C454.138 2718.35 453.781 2718.49 453.494 2718.49L448.861 2718.49L448.861 2687.11Z" stroke="#BDBDBD" stroke-width="1.48983"/>
<path d="M448.116 2686.37L453.299 2686.37C455.578 2686.37 457.613 2691.47 457.613 2697.53L457.613 2708.44C457.613 2714.49 455.764 2719.24 453.494 2719.24L448.116 2719.24L448.116 2686.37Z" stroke="#BDBDBD" stroke-width="1.48983" stroke-miterlimit="3.864"/>
<path d="M448.861 2759.68L453.299 2759.68C453.573 2759.68 453.942 2759.84 454.378 2760.33C454.81 2760.81 455.239 2761.55 455.617 2762.52C456.371 2764.46 456.868 2767.15 456.868 2770.11L456.868 2781.02C456.868 2783.98 456.415 2786.59 455.709 2788.43C455.356 2789.35 454.953 2790.04 454.545 2790.49C454.137 2790.93 453.781 2791.08 453.494 2791.08L448.861 2791.08L448.861 2759.68Z" stroke="#BDBDBD" stroke-width="1.48983"/>
<path d="M448.116 2758.94L453.299 2758.94C455.578 2758.94 457.613 2764.05 457.613 2770.11L457.613 2781.02C457.613 2787.07 455.764 2791.82 453.494 2791.82L448.116 2791.82L448.116 2758.94Z" stroke="#BDBDBD" stroke-width="1.48983" stroke-miterlimit="3.864"/>
<path d="M448.861 2832.24L453.299 2832.24C453.574 2832.24 453.943 2832.39 454.379 2832.88C454.811 2833.37 455.239 2834.11 455.617 2835.07C456.371 2837 456.868 2839.7 456.868 2842.66L456.868 2853.57C456.868 2856.53 456.415 2859.13 455.709 2860.97C455.356 2861.89 454.953 2862.58 454.545 2863.03C454.138 2863.47 453.781 2863.62 453.494 2863.62L448.861 2863.62L448.861 2832.24Z" stroke="#BDBDBD" stroke-width="1.48983"/>
<path d="M448.116 2831.5L453.299 2831.5C455.578 2831.5 457.613 2836.59 457.613 2842.66L457.613 2853.57C457.613 2859.62 455.764 2864.37 453.494 2864.37L448.116 2864.37L448.116 2831.5Z" stroke="#BDBDBD" stroke-width="1.48983" stroke-miterlimit="3.864"/>
<path d="M448.861 1175.48L453.299 1175.48C453.574 1175.48 453.942 1175.63 454.379 1176.12C454.811 1176.61 455.239 1177.35 455.617 1178.32C456.371 1180.25 456.868 1182.94 456.868 1185.89L456.868 1196.81C456.868 1199.77 456.415 1202.37 455.709 1204.21C455.356 1205.13 454.953 1205.82 454.545 1206.27C454.138 1206.71 453.781 1206.86 453.494 1206.86L448.861 1206.86L448.861 1175.48Z" stroke="#BDBDBD" stroke-width="1.48983"/>
<path d="M448.116 1064.15L453.299 1064.15C455.578 1064.15 457.613 1069.26 457.613 1075.32L457.613 1086.23C457.613 1092.28 455.764 1097.03 453.494 1097.03L448.116 1097.03L448.116 1064.15Z" stroke="#BDBDBD" stroke-width="1.48983" stroke-miterlimit="3.864"/>
<path d="M448.116 969.027L453.299 969.027C455.578 969.027 457.613 974.143 457.613 980.195L457.613 991.11C457.613 997.162 455.764 1001.91 453.494 1001.91L448.116 1001.91L448.116 969.027Z" stroke="#BDBDBD" stroke-width="1.48983" stroke-miterlimit="3.864"/>
<path d="M448.116 896.937L453.299 896.937C455.578 896.937 457.613 902.044 457.613 908.097L457.613 919.011C457.613 925.064 455.764 929.825 453.494 929.825L448.116 929.825L448.116 896.937Z" stroke="#BDBDBD" stroke-width="1.48983" stroke-miterlimit="3.864"/>
<path d="M448.116 824.129L453.299 824.129C455.578 824.129 457.613 829.236 457.613 835.288L457.613 846.203C457.613 852.255 455.764 856.999 453.494 856.999L448.116 856.999L448.116 824.129Z" stroke="#BDBDBD" stroke-width="1.48983" stroke-miterlimit="3.864"/>
<path d="M448.116 750.34L453.299 750.34C455.578 750.34 457.613 755.447 457.613 761.499L457.613 772.422C457.613 778.475 455.764 783.227 453.494 783.227L448.116 783.227L448.116 750.34Z" stroke="#BDBDBD" stroke-width="1.48983" stroke-miterlimit="3.864"/>
<path d="M448.116 677.785L453.299 677.785C455.578 677.785 457.613 682.901 457.613 688.953L457.613 699.868C457.613 705.92 455.764 710.664 453.494 710.664L448.116 710.664L448.116 677.785Z" stroke="#BDBDBD" stroke-width="1.48983" stroke-miterlimit="3.864"/>
<path d="M448.861 600.905L453.299 600.905C453.574 600.905 453.942 601.059 454.379 601.549C454.811 602.033 455.239 602.773 455.617 603.742C456.371 605.674 456.868 608.372 456.868 611.328L456.868 622.243C456.868 625.203 456.415 627.809 455.709 629.648C455.356 630.57 454.953 631.261 454.545 631.708C454.137 632.155 453.781 632.303 453.494 632.303L448.861 632.303L448.861 600.905Z" stroke="#BDBDBD" stroke-width="1.48983"/>
<path d="M448.116 600.16L453.299 600.16C455.578 600.16 457.613 605.267 457.613 611.328L457.613 622.243C457.613 628.295 455.764 633.047 453.494 633.047L448.116 633.047L448.116 600.16Z" stroke="#BDBDBD" stroke-width="1.48983" stroke-miterlimit="3.864"/>
<path d="M448.861 529.698L453.299 529.698C453.574 529.698 453.943 529.852 454.379 530.341C454.811 530.824 455.239 531.563 455.617 532.531C456.371 534.461 456.868 537.156 456.868 540.112L456.868 551.027C456.868 553.987 456.415 556.594 455.709 558.432C455.356 559.354 454.953 560.045 454.545 560.493C454.137 560.94 453.781 561.087 453.494 561.087L448.861 561.087L448.861 529.698Z" stroke="#BDBDBD" stroke-width="1.48983"/>
<path d="M448.116 528.953L453.299 528.953C455.578 528.953 457.613 534.052 457.613 540.112L457.613 551.027C457.613 557.079 455.764 561.832 453.494 561.832L448.116 561.832L448.116 528.953Z" stroke="#BDBDBD" stroke-width="1.48983" stroke-miterlimit="3.864"/>
<path d="M448.861 454.241L453.299 454.241C453.574 454.241 453.942 454.395 454.379 454.884C454.811 455.369 455.239 456.109 455.617 457.077C456.371 459.008 456.868 461.704 456.868 464.656L456.868 475.57C456.868 478.53 456.415 481.134 455.709 482.971C455.356 483.892 454.953 484.581 454.545 485.028C454.138 485.474 453.781 485.622 453.494 485.622L448.861 485.622L448.861 454.241Z" stroke="#BDBDBD" stroke-width="1.48983"/>
<path d="M448.116 453.496L453.299 453.496C455.578 453.496 457.613 458.603 457.613 464.656L457.613 475.57C457.613 481.622 455.764 486.367 453.494 486.367L448.116 486.367L448.116 453.496Z" stroke="#BDBDBD" stroke-width="1.48983" stroke-miterlimit="3.864"/>
<path d="M448.861 380.475L453.299 380.475C453.573 380.475 453.942 380.629 454.378 381.12C454.81 381.605 455.239 382.346 455.617 383.315C456.371 385.249 456.868 387.946 456.868 390.898L456.868 401.813C456.868 404.773 456.415 407.377 455.709 409.214C455.356 410.134 454.953 410.824 454.545 411.271C454.138 411.717 453.781 411.864 453.494 411.864L448.861 411.864L448.861 380.475Z" stroke="#BDBDBD" stroke-width="1.48983"/>
<path d="M448.116 379.73L453.299 379.73C455.578 379.73 457.613 384.846 457.613 390.898L457.613 401.813C457.613 407.865 455.764 412.609 453.494 412.609L448.116 412.609L448.116 379.73Z" stroke="#BDBDBD" stroke-width="1.48983" stroke-miterlimit="3.864"/>
<path d="M453.494 338.81L448.861 338.81L448.861 307.422L453.298 307.429L453.299 307.429C453.574 307.429 453.942 307.583 454.379 308.072C454.811 308.557 455.239 309.297 455.617 310.265C456.371 312.196 456.868 314.892 456.868 317.844L456.868 328.758C456.868 331.718 456.415 334.322 455.709 336.159C455.356 337.08 454.953 337.77 454.545 338.216C454.138 338.662 453.781 338.81 453.494 338.81Z" stroke="#BDBDBD" stroke-width="1.48983"/>
<path d="M448.116 306.676L453.299 306.684C455.578 306.684 457.613 311.791 457.613 317.844L457.613 328.758C457.613 334.811 455.764 339.555 453.494 339.555L448.116 339.555L448.116 306.676Z" stroke="#BDBDBD" stroke-width="1.48983" stroke-miterlimit="3.864"/>
<path d="M448.861 235.093L453.299 235.093C453.573 235.093 453.942 235.247 454.378 235.737C454.81 236.222 455.239 236.963 455.617 237.932C456.371 239.866 456.868 242.563 456.868 245.515L456.868 256.43C456.868 259.39 456.415 261.994 455.709 263.831C455.356 264.752 454.953 265.441 454.545 265.888C454.138 266.334 453.781 266.482 453.494 266.482L448.861 266.482L448.861 235.093Z" stroke="#BDBDBD" stroke-width="1.48983"/>
<path d="M448.116 234.348L453.299 234.348C455.578 234.348 457.613 239.463 457.613 245.515L457.613 256.43C457.613 262.482 455.764 267.226 453.494 267.226L448.116 267.226L448.116 234.348Z" stroke="#BDBDBD" stroke-width="1.48983" stroke-miterlimit="3.864"/>
<path d="M448.861 163.003L453.299 163.003C453.574 163.003 453.942 163.157 454.379 163.646C454.811 164.13 455.239 164.87 455.617 165.839C456.371 167.77 456.868 170.465 456.868 173.417L456.868 184.332C456.868 187.292 456.415 189.896 455.709 191.733C455.356 192.653 454.953 193.343 454.545 193.79C454.138 194.236 453.781 194.383 453.494 194.383L448.861 194.383L448.861 163.003Z" stroke="#BDBDBD" stroke-width="1.48983"/>
<path d="M448.116 162.258L453.299 162.258C455.578 162.258 457.613 167.365 457.613 173.417L457.613 184.332C457.613 190.384 455.764 195.128 453.494 195.128L448.116 195.128L448.116 162.258Z" stroke="#BDBDBD" stroke-width="1.48983" stroke-miterlimit="3.864"/>
<path d="M448.861 87.7879L453.299 87.7879C453.574 87.7879 453.942 87.9418 454.379 88.4313C454.811 88.9158 455.239 89.6559 455.617 90.6247C456.371 92.5571 456.868 95.2544 456.868 98.2108L456.868 109.125C456.868 112.086 456.415 114.692 455.709 116.531C455.356 117.452 454.953 118.143 454.545 118.591C454.137 119.038 453.781 119.185 453.494 119.185L448.861 119.185L448.861 87.7879Z" stroke="#BDBDBD" stroke-width="1.48983"/>
<path d="M448.116 87.043L453.299 87.043C455.578 87.043 457.613 92.1499 457.613 98.2108L457.613 109.125C457.613 115.178 455.764 119.93 453.494 119.93L448.116 119.93L448.116 87.043Z" stroke="#BDBDBD" stroke-width="1.48983" stroke-miterlimit="3.864"/>
<path d="M448.861 13.8777L453.299 13.8777C453.574 13.8777 453.942 14.0317 454.379 14.5211C454.811 15.0055 455.239 15.7453 455.617 16.7137C456.371 18.645 456.868 21.3402 456.868 24.2922L456.868 35.2068C456.868 38.167 456.415 40.7756 455.709 42.6166C455.355 43.5395 454.953 44.2316 454.544 44.6801C454.137 45.1279 453.78 45.2752 453.494 45.2752L448.861 45.2752L448.861 13.8777Z" stroke="#BDBDBD" stroke-width="1.48983"/>
<path d="M448.116 13.1328L453.299 13.1328C455.578 13.1328 457.613 18.2398 457.613 24.2922L457.613 35.2068C457.613 41.2592 455.764 46.0201 453.494 46.0201L448.116 46.0201L448.116 13.1328Z" stroke="#BDBDBD" stroke-width="1.48983" stroke-miterlimit="3.864"/>
<path d="M989.062 1255.46L983.879 1255.46C981.6 1255.46 979.565 1260.58 979.565 1266.63L979.565 1277.54C979.565 1283.6 981.414 1288.34 983.685 1288.34L989.062 1288.34L989.062 1255.46Z" stroke="#BDBDBD" stroke-width="1.48983" stroke-miterlimit="3.864"/>
<path d="M989.062 1325.87L983.879 1325.87C981.6 1325.87 979.565 1330.97 979.565 1337.03L979.565 1347.95C979.565 1354 981.414 1358.75 983.685 1358.75L989.062 1358.75L989.062 1325.87Z" stroke="#BDBDBD" stroke-width="1.48983" stroke-miterlimit="3.864"/>
<path d="M989.062 1394.61L983.879 1394.61C981.6 1394.61 979.565 1399.72 979.565 1405.77L979.565 1416.68C979.565 1422.74 981.414 1427.48 983.685 1427.48L989.062 1427.48L989.062 1394.61Z" stroke="#BDBDBD" stroke-width="1.48983" stroke-miterlimit="3.864"/>
<path d="M989.062 1465.01L983.879 1465.01C981.6 1465.01 979.565 1470.12 979.565 1476.18L979.565 1487.09C979.565 1493.14 981.414 1497.89 983.685 1497.89L989.062 1497.89L989.062 1465.01Z" stroke="#BDBDBD" stroke-width="1.48983" stroke-miterlimit="3.864"/>
<path d="M989.062 1533.74L983.879 1533.74C981.6 1533.74 979.565 1538.84 979.565 1544.89L979.565 1555.82C979.565 1561.87 981.414 1566.62 983.685 1566.62L989.062 1566.62L989.062 1533.74Z" stroke="#BDBDBD" stroke-width="1.48983" stroke-miterlimit="3.864"/>
<path d="M989.062 1604.15L983.879 1604.15C981.6 1604.15 979.565 1609.26 979.565 1615.31L979.565 1626.23C979.565 1632.28 981.414 1637.04 983.685 1637.04L989.062 1637.04L989.062 1604.15Z" stroke="#BDBDBD" stroke-width="1.48983" stroke-miterlimit="3.864"/>
<path d="M989.062 1676.09L983.879 1676.09C981.6 1676.09 979.565 1681.2 979.565 1687.25L979.565 1698.17C979.565 1704.22 981.414 1708.97 983.685 1708.97L989.062 1708.97L989.062 1676.09Z" stroke="#BDBDBD" stroke-width="1.48983" stroke-miterlimit="3.864"/>
<path d="M989.062 1749.71L983.879 1749.71C981.6 1749.71 979.565 1754.81 979.565 1760.87L979.565 1771.78C979.565 1777.84 981.414 1782.59 983.685 1782.59L989.062 1782.59L989.062 1749.71Z" stroke="#BDBDBD" stroke-width="1.48983" stroke-miterlimit="3.864"/>
<path d="M989.062 1819.25L983.879 1819.25C981.6 1819.25 979.565 1824.35 979.565 1830.41L979.565 1841.32C979.565 1847.38 981.414 1852.12 983.685 1852.12L989.062 1852.12L989.062 1819.25Z" stroke="#BDBDBD" stroke-width="1.48983" stroke-miterlimit="3.864"/>
<path d="M989.062 1893.27L983.879 1893.27C981.6 1893.27 979.565 1898.37 979.565 1904.42L979.565 1915.34C979.565 1921.39 981.414 1926.15 983.685 1926.15L989.062 1926.15L989.062 1893.27Z" stroke="#BDBDBD" stroke-width="1.48983" stroke-miterlimit="3.864"/>
<path d="M989.062 1965.45L983.879 1965.45C981.6 1965.45 979.565 1970.56 979.565 1976.62L979.565 1987.53C979.565 1993.58 981.414 1998.34 983.685 1998.34L989.062 1998.34L989.062 1965.45Z" stroke="#BDBDBD" stroke-width="1.48983" stroke-miterlimit="3.864"/>
<path d="M986.818 2034.03L981.636 2034.03C979.356 2034.03 977.322 2039.13 977.322 2045.19L977.322 2056.1C977.322 2062.15 979.171 2066.9 981.441 2066.9L986.818 2066.9L986.818 2034.03Z" stroke="#BDBDBD" stroke-width="1.48983" stroke-miterlimit="3.864"/>
<path d="M989.062 2106.67L983.879 2106.67C981.6 2106.67 979.565 2111.79 979.565 2117.84L979.565 2128.75C979.565 2134.81 981.414 2139.56 983.685 2139.56L989.062 2139.56L989.062 2106.67Z" stroke="#BDBDBD" stroke-width="1.48983" stroke-miterlimit="3.864"/>
<path d="M989.062 2181.96L983.879 2181.96C981.6 2181.96 979.565 2187.07 979.565 2193.12L979.565 2204.04C979.565 2210.09 981.414 2214.84 983.685 2214.84L989.062 2214.84L989.062 2181.96Z" stroke="#BDBDBD" stroke-width="1.48983" stroke-miterlimit="3.864"/>
<path d="M987.389 2251.98L982.197 2251.98C979.926 2251.98 977.892 2257.09 977.892 2263.14L977.892 2274.06C977.892 2280.11 979.732 2284.86 982.003 2284.86L987.38 2284.86L987.38 2251.98L987.389 2251.98Z" stroke="#BDBDBD" stroke-width="1.48983" stroke-miterlimit="3.864"/>
<path d="M989.062 2326.31L983.879 2326.31C981.6 2326.31 979.565 2331.43 979.565 2337.48L979.565 2348.39C979.565 2354.45 981.414 2359.2 983.685 2359.2L989.062 2359.2L989.062 2326.31Z" stroke="#BDBDBD" stroke-width="1.48983" stroke-miterlimit="3.864"/>
<path d="M988.317 2399.46L983.879 2399.46C983.605 2399.46 983.236 2399.62 982.8 2400.11C982.368 2400.59 981.939 2401.33 981.561 2402.3C980.808 2404.24 980.31 2406.93 980.31 2409.89L980.31 2420.8C980.31 2423.76 980.764 2426.37 981.469 2428.21C981.823 2429.13 982.225 2429.82 982.633 2430.27C983.041 2430.71 983.397 2430.86 983.685 2430.86L988.317 2430.86L988.317 2399.46Z" stroke="#BDBDBD" stroke-width="1.48983"/>
<path d="M989.062 2398.72L983.879 2398.72C981.6 2398.72 979.565 2403.83 979.565 2409.89L979.565 2420.8C979.565 2426.85 981.414 2431.61 983.685 2431.61L989.062 2431.61L989.062 2398.72Z" stroke="#BDBDBD" stroke-width="1.48983" stroke-miterlimit="3.864"/>
<path d="M988.317 2467.8L983.879 2467.8C983.604 2467.8 983.236 2467.95 982.799 2468.44C982.368 2468.92 981.939 2469.66 981.561 2470.63C980.808 2472.56 980.31 2475.26 980.31 2478.21L980.31 2489.12C980.31 2492.08 980.764 2494.69 981.469 2496.53C981.822 2497.45 982.225 2498.14 982.633 2498.58C983.041 2499.03 983.397 2499.18 983.685 2499.18L988.317 2499.18L988.317 2467.8Z" stroke="#BDBDBD" stroke-width="1.48983"/>
<path d="M989.062 2467.05L983.879 2467.05C981.6 2467.05 979.565 2472.16 979.565 2478.21L979.565 2489.12C979.565 2495.18 981.414 2499.92 983.685 2499.92L989.062 2499.92L989.062 2467.05Z" stroke="#BDBDBD" stroke-width="1.48983" stroke-miterlimit="3.864"/>
<path d="M988.317 2540.46L983.879 2540.46C983.604 2540.46 983.235 2540.61 982.799 2541.1C982.367 2541.59 981.939 2542.32 981.561 2543.29C980.808 2545.22 980.31 2547.92 980.31 2550.87L980.31 2561.79C980.31 2564.75 980.764 2567.35 981.469 2569.19C981.822 2570.11 982.225 2570.8 982.633 2571.25C983.041 2571.69 983.397 2571.84 983.685 2571.84L988.317 2571.84L988.317 2540.46Z" stroke="#BDBDBD" stroke-width="1.48983"/>
<path d="M989.062 2539.71L983.879 2539.71C981.6 2539.71 979.565 2544.81 979.565 2550.87L979.565 2561.79C979.565 2567.84 981.414 2572.59 983.685 2572.59L989.062 2572.59L989.062 2539.71Z" stroke="#BDBDBD" stroke-width="1.48983" stroke-miterlimit="3.864"/>
<path d="M988.317 2616.46L983.879 2616.46C983.604 2616.46 983.236 2616.62 982.799 2617.11C982.368 2617.59 981.939 2618.33 981.561 2619.3C980.808 2621.23 980.31 2623.93 980.31 2626.89L980.31 2637.8C980.31 2640.76 980.764 2643.37 981.469 2645.2C981.822 2646.12 982.225 2646.81 982.633 2647.26C983.041 2647.71 983.397 2647.85 983.685 2647.85L988.317 2647.85L988.317 2616.46Z" stroke="#BDBDBD" stroke-width="1.48983"/>
<path d="M989.062 2615.72L983.879 2615.72C981.6 2615.72 979.565 2620.83 979.565 2626.89L979.565 2637.8C979.565 2643.85 981.414 2648.6 983.685 2648.6L989.062 2648.6L989.062 2615.72Z" stroke="#BDBDBD" stroke-width="1.48983" stroke-miterlimit="3.864"/>
<path d="M988.317 2687.11L983.879 2687.11C983.604 2687.11 983.236 2687.27 982.799 2687.76C982.368 2688.24 981.939 2688.98 981.561 2689.95C980.808 2691.88 980.31 2694.57 980.31 2697.53L980.31 2708.44C980.31 2711.4 980.764 2714.01 981.469 2715.84C981.822 2716.76 982.225 2717.45 982.633 2717.9C983.041 2718.35 983.397 2718.49 983.685 2718.49L988.317 2718.49L988.317 2687.11Z" stroke="#BDBDBD" stroke-width="1.48983"/>
<path d="M989.062 2686.37L983.879 2686.37C981.6 2686.37 979.565 2691.47 979.565 2697.53L979.565 2708.44C979.565 2714.49 981.414 2719.24 983.685 2719.24L989.062 2719.24L989.062 2686.37Z" stroke="#BDBDBD" stroke-width="1.48983" stroke-miterlimit="3.864"/>
<path d="M988.317 2759.68L983.879 2759.68C983.605 2759.68 983.236 2759.84 982.8 2760.33C982.368 2760.81 981.939 2761.55 981.561 2762.52C980.808 2764.46 980.31 2767.15 980.31 2770.11L980.31 2781.02C980.31 2783.98 980.764 2786.59 981.469 2788.43C981.823 2789.35 982.225 2790.04 982.633 2790.49C983.041 2790.93 983.397 2791.08 983.685 2791.08L988.317 2791.08L988.317 2759.68Z" stroke="#BDBDBD" stroke-width="1.48983"/>
<path d="M989.062 2758.94L983.879 2758.94C981.6 2758.94 979.565 2764.05 979.565 2770.11L979.565 2781.02C979.565 2787.07 981.414 2791.82 983.685 2791.82L989.062 2791.82L989.062 2758.94Z" stroke="#BDBDBD" stroke-width="1.48983" stroke-miterlimit="3.864"/>
<path d="M988.317 2832.24L983.879 2832.24C983.604 2832.24 983.235 2832.39 982.799 2832.88C982.367 2833.37 981.939 2834.11 981.561 2835.07C980.808 2837 980.31 2839.7 980.31 2842.66L980.31 2853.57C980.31 2856.53 980.764 2859.13 981.469 2860.97C981.822 2861.89 982.225 2862.58 982.633 2863.03C983.041 2863.47 983.397 2863.62 983.685 2863.62L988.317 2863.62L988.317 2832.24Z" stroke="#BDBDBD" stroke-width="1.48983"/>
<path d="M989.062 2831.5L983.879 2831.5C981.6 2831.5 979.565 2836.59 979.565 2842.66L979.565 2853.57C979.565 2859.62 981.414 2864.37 983.685 2864.37L989.062 2864.37L989.062 2831.5Z" stroke="#BDBDBD" stroke-width="1.48983" stroke-miterlimit="3.864"/>
<path d="M988.317 1175.48L983.879 1175.48C983.604 1175.48 983.236 1175.63 982.799 1176.12C982.368 1176.61 981.939 1177.35 981.561 1178.32C980.808 1180.25 980.31 1182.94 980.31 1185.89L980.31 1196.81C980.31 1199.77 980.764 1202.37 981.469 1204.21C981.822 1205.13 982.225 1205.82 982.633 1206.27C983.041 1206.71 983.397 1206.86 983.685 1206.86L988.317 1206.86L988.317 1175.48Z" stroke="#BDBDBD" stroke-width="1.48983"/>
<path d="M989.062 1064.15L983.879 1064.15C981.6 1064.15 979.565 1069.26 979.565 1075.32L979.565 1086.23C979.565 1092.28 981.414 1097.03 983.685 1097.03L989.062 1097.03L989.062 1064.15Z" stroke="#BDBDBD" stroke-width="1.48983" stroke-miterlimit="3.864"/>
<path d="M989.062 969.027L983.879 969.027C981.6 969.027 979.565 974.143 979.565 980.195L979.565 991.11C979.565 997.162 981.414 1001.91 983.685 1001.91L989.062 1001.91L989.062 969.027Z" stroke="#BDBDBD" stroke-width="1.48983" stroke-miterlimit="3.864"/>
<path d="M989.062 896.937L983.879 896.937C981.6 896.937 979.565 902.044 979.565 908.097L979.565 919.011C979.565 925.064 981.414 929.825 983.685 929.825L989.062 929.825L989.062 896.937Z" stroke="#BDBDBD" stroke-width="1.48983" stroke-miterlimit="3.864"/>
<path d="M989.062 824.129L983.879 824.129C981.6 824.129 979.565 829.236 979.565 835.288L979.565 846.203C979.565 852.255 981.414 856.999 983.685 856.999L989.062 856.999L989.062 824.129Z" stroke="#BDBDBD" stroke-width="1.48983" stroke-miterlimit="3.864"/>
<path d="M989.062 750.34L983.879 750.34C981.6 750.34 979.565 755.447 979.565 761.499L979.565 772.422C979.565 778.475 981.414 783.227 983.685 783.227L989.062 783.227L989.062 750.34Z" stroke="#BDBDBD" stroke-width="1.48983" stroke-miterlimit="3.864"/>
<path d="M989.062 677.785L983.879 677.785C981.6 677.785 979.565 682.901 979.565 688.953L979.565 699.868C979.565 705.92 981.414 710.664 983.685 710.664L989.062 710.664L989.062 677.785Z" stroke="#BDBDBD" stroke-width="1.48983" stroke-miterlimit="3.864"/>
<path d="M988.317 600.905L983.879 600.905C983.604 600.905 983.236 601.059 982.799 601.549C982.368 602.033 981.939 602.773 981.561 603.742C980.808 605.674 980.31 608.372 980.31 611.328L980.31 622.243C980.31 625.203 980.764 627.809 981.469 629.648C981.823 630.57 982.225 631.261 982.633 631.708C983.041 632.155 983.397 632.303 983.685 632.303L988.317 632.303L988.317 600.905Z" stroke="#BDBDBD" stroke-width="1.48983"/>
<path d="M989.062 600.16L983.879 600.16C981.6 600.16 979.565 605.267 979.565 611.328L979.565 622.243C979.565 628.295 981.414 633.047 983.685 633.047L989.062 633.047L989.062 600.16Z" stroke="#BDBDBD" stroke-width="1.48983" stroke-miterlimit="3.864"/>
<path d="M988.317 529.698L983.879 529.698C983.604 529.698 983.235 529.852 982.799 530.341C982.367 530.824 981.939 531.563 981.561 532.531C980.808 534.461 980.31 537.156 980.31 540.112L980.31 551.027C980.31 553.987 980.764 556.594 981.469 558.432C981.823 559.354 982.225 560.045 982.633 560.493C983.041 560.94 983.397 561.087 983.685 561.087L988.317 561.087L988.317 529.698Z" stroke="#BDBDBD" stroke-width="1.48983"/>
<path d="M989.062 528.953L983.879 528.953C981.6 528.953 979.565 534.052 979.565 540.112L979.565 551.027C979.565 557.079 981.414 561.832 983.685 561.832L989.062 561.832L989.062 528.953Z" stroke="#BDBDBD" stroke-width="1.48983" stroke-miterlimit="3.864"/>
<path d="M988.317 454.241L983.879 454.241C983.604 454.241 983.236 454.395 982.799 454.884C982.368 455.369 981.939 456.109 981.561 457.077C980.808 459.008 980.31 461.704 980.31 464.656L980.31 475.57C980.31 478.53 980.764 481.134 981.469 482.971C981.822 483.892 982.225 484.581 982.633 485.028C983.041 485.474 983.397 485.622 983.685 485.622L988.317 485.622L988.317 454.241Z" stroke="#BDBDBD" stroke-width="1.48983"/>
<path d="M989.062 453.496L983.879 453.496C981.6 453.496 979.565 458.603 979.565 464.656L979.565 475.57C979.565 481.622 981.414 486.367 983.685 486.367L989.062 486.367L989.062 453.496Z" stroke="#BDBDBD" stroke-width="1.48983" stroke-miterlimit="3.864"/>
<path d="M988.317 380.475L983.879 380.475C983.605 380.475 983.236 380.629 982.8 381.12C982.368 381.605 981.939 382.346 981.561 383.315C980.808 385.249 980.31 387.946 980.31 390.898L980.31 401.813C980.31 404.773 980.764 407.377 981.469 409.214C981.822 410.134 982.225 410.824 982.633 411.271C983.041 411.717 983.397 411.864 983.685 411.864L988.317 411.864L988.317 380.475Z" stroke="#BDBDBD" stroke-width="1.48983"/>
<path d="M989.062 379.73L983.879 379.73C981.6 379.73 979.565 384.846 979.565 390.898L979.565 401.813C979.565 407.865 981.414 412.609 983.685 412.609L989.062 412.609L989.062 379.73Z" stroke="#BDBDBD" stroke-width="1.48983" stroke-miterlimit="3.864"/>
<path d="M983.685 338.81L988.317 338.81L988.317 307.422L983.88 307.429L983.879 307.429C983.604 307.429 983.236 307.583 982.799 308.072C982.368 308.557 981.939 309.297 981.561 310.265C980.808 312.196 980.31 314.892 980.31 317.844L980.31 328.758C980.31 331.718 980.764 334.322 981.469 336.159C981.822 337.08 982.225 337.77 982.633 338.216C983.041 338.662 983.397 338.81 983.685 338.81Z" stroke="#BDBDBD" stroke-width="1.48983"/>
<path d="M989.062 306.676L983.879 306.684C981.6 306.684 979.565 311.791 979.565 317.844L979.565 328.758C979.565 334.811 981.414 339.555 983.685 339.555L989.062 339.555L989.062 306.676Z" stroke="#BDBDBD" stroke-width="1.48983" stroke-miterlimit="3.864"/>
<path d="M988.317 235.093L983.879 235.093C983.605 235.093 983.236 235.247 982.8 235.737C982.368 236.222 981.939 236.963 981.561 237.932C980.808 239.866 980.31 242.563 980.31 245.515L980.31 256.43C980.31 259.39 980.764 261.994 981.469 263.831C981.822 264.752 982.225 265.441 982.633 265.888C983.041 266.334 983.397 266.482 983.685 266.482L988.317 266.482L988.317 235.093Z" stroke="#BDBDBD" stroke-width="1.48983"/>
<path d="M989.062 234.348L983.879 234.348C981.6 234.348 979.565 239.463 979.565 245.515L979.565 256.43C979.565 262.482 981.414 267.226 983.685 267.226L989.062 267.226L989.062 234.348Z" stroke="#BDBDBD" stroke-width="1.48983" stroke-miterlimit="3.864"/>
<path d="M988.317 163.003L983.879 163.003C983.604 163.003 983.236 163.157 982.799 163.646C982.368 164.13 981.939 164.87 981.561 165.839C980.808 167.77 980.31 170.465 980.31 173.417L980.31 184.332C980.31 187.292 980.764 189.896 981.469 191.733C981.822 192.653 982.225 193.343 982.633 193.79C983.041 194.236 983.397 194.383 983.685 194.383L988.317 194.383L988.317 163.003Z" stroke="#BDBDBD" stroke-width="1.48983"/>
<path d="M989.062 162.258L983.879 162.258C981.6 162.258 979.565 167.365 979.565 173.417L979.565 184.332C979.565 190.384 981.414 195.128 983.685 195.128L989.062 195.128L989.062 162.258Z" stroke="#BDBDBD" stroke-width="1.48983" stroke-miterlimit="3.864"/>
<path d="M988.317 87.7879L983.879 87.7879C983.604 87.7879 983.236 87.9418 982.799 88.4313C982.368 88.9158 981.939 89.6559 981.561 90.6247C980.808 92.5571 980.31 95.2544 980.31 98.2108L980.31 109.125C980.31 112.086 980.764 114.692 981.469 116.531C981.823 117.452 982.225 118.143 982.633 118.591C983.041 119.038 983.397 119.185 983.685 119.185L988.317 119.185L988.317 87.7879Z" stroke="#BDBDBD" stroke-width="1.48983"/>
<path d="M989.062 87.043L983.879 87.043C981.6 87.043 979.565 92.1499 979.565 98.2108L979.565 109.125C979.565 115.178 981.414 119.93 983.685 119.93L989.062 119.93L989.062 87.043Z" stroke="#BDBDBD" stroke-width="1.48983" stroke-miterlimit="3.864"/>
<path d="M988.317 13.8777L983.879 13.8777C983.604 13.8777 983.236 14.0317 982.799 14.5211C982.368 15.0055 981.939 15.7453 981.561 16.7137C980.808 18.645 980.31 21.3402 980.31 24.2922L980.31 35.2068C980.31 38.167 980.764 40.7756 981.469 42.6166C981.823 43.5395 982.225 44.2316 982.634 44.6801C983.042 45.1279 983.398 45.2752 983.685 45.2752L988.317 45.2752L988.317 13.8777Z" stroke="#BDBDBD" stroke-width="1.48983"/>
<path d="M989.062 13.1328L983.879 13.1328C981.6 13.1328 979.565 18.2398 979.565 24.2922L979.565 35.2068C979.565 41.2592 981.414 46.0201 983.685 46.0201L989.062 46.0201L989.062 13.1328Z" stroke="#BDBDBD" stroke-width="1.48983" stroke-miterlimit="3.864"/>
<path d="M590.31 3777.58C592.699 3707.09 578.441 3615.1 578.441 3615.1C478.649 3243.24 453.249 2967.33 447.796 2852.91L447.796 -121.101C447.796 -121.101 442.233 -406.788 517.825 -591.804C599.908 -792.622 653.13 -888 719.276 -888C785.38 -888 838.653 -792.622 920.702 -591.804C996.26 -406.788 990.342 -121.101 990.342 -121.101L990.342 2852.91C984.847 2967.33 959.32 3243.24 859.519 3615.1C859.519 3615.1 845.253 3707.09 847.642 3777.58L829.316 3926.34C829.316 3926.34 787.912 4170.62 749.901 4203.53L688.043 4203.53C650.032 4170.63 608.636 3926.34 608.636 3926.34L590.31 3777.58Z" fill="url(#paint2_linear_6975_181530)" fill-opacity="0.1" stroke="#BDBDBD" stroke-width="1.48983" stroke-miterlimit="3.864"/>
<path d="M749.295 3218.42C761.982 3347.29 764.675 3458.69 761.248 3617.52C757.145 3807.78 747.134 3915.54 717.843 4103.58C689.286 3915.44 679.579 3807.73 675.712 3617.47C672.479 3458.34 675.231 3346.59 687.843 3217.39" stroke="#BDBDBD" stroke-width="1.48983" stroke-miterlimit="3.864"/>
<path d="M687.844 3217.52C693.457 3159.99 701.038 3098.86 710.897 3028.67C711.716 3023.37 712.349 3016.76 717.819 3016.45C723.441 3016.12 724.901 3022.7 725.821 3028.46C735.892 3099.03 743.582 3160.33 749.288 3218.16" stroke="#BDBDBD" stroke-width="1.48983" stroke-miterlimit="3.864"/>
<path d="M677.095 4191.29C680.877 4198.68 685.131 4206.91 688.272 4209.62L749.251 4209.62C752.425 4206.87 757.153 4197.84 760.428 4192.13C760.428 4192.13 715.528 4182.66 677.095 4191.29Z" stroke="#BDBDBD" stroke-width="1.48983" stroke-miterlimit="3.864"/>
<path d="M445.688 1044.71L467.703 1044.71C474.946 1044.71 480.754 1050.49 480.754 1057.6L480.754 1102.4C480.754 1109.54 474.946 1115.31 467.703 1115.31L445.688 1115.31" stroke="#BDBDBD" stroke-width="1.48983" stroke-miterlimit="3.864"/>
<path d="M445.688 1156.3L467.703 1156.3C474.946 1156.3 480.754 1162.09 480.754 1169.21L480.754 1214C480.754 1221.13 474.946 1226.9 467.703 1226.9L445.688 1226.9" stroke="#BDBDBD" stroke-width="1.48983" stroke-miterlimit="3.864"/>
<path d="M989.395 1044.72L967.38 1044.72C960.137 1044.72 954.329 1050.49 954.329 1057.61L954.329 1102.41C954.329 1109.55 960.137 1115.31 967.38 1115.31L989.395 1115.31" stroke="#BDBDBD" stroke-width="1.48983" stroke-miterlimit="3.864"/>
<path d="M989.394 1156.3L967.379 1156.3C960.137 1156.3 954.329 1162.1 954.329 1169.21L954.329 1214C954.329 1221.13 960.137 1226.9 967.379 1226.9L989.394 1226.9" stroke="#BDBDBD" stroke-width="1.48983" stroke-miterlimit="3.864"/>
<path d="M845.436 3793.06L1561.54 4046.15" stroke="#BDBDBD" stroke-width="1.48983"/>
<path d="M592.732 3793.06L-123.418 4046.15" stroke="#BDBDBD" stroke-width="1.48983"/>
<path d="M492.136 -396.785C484.514 -342.043 481.188 -310.963 477.094 -255.833C473.928 -213.314 472.738 -189.256 471.683 -146.636L471.683 2832.88C475.76 2910.46 479.373 2954.21 488.093 3031.41C501.852 3153.25 513.484 3218.12 538.116 3341.8L898.533 3341.8C923.688 3221.79 934.712 3153.25 948.455 3031.41C957.158 2954.21 960.779 2910.47 964.865 2832.88L964.865 -146.636C963.81 -189.256 962.619 -213.306 959.462 -255.833C955.36 -310.963 952.042 -342.043 944.411 -396.785L492.136 -396.785Z" fill="#EEEEEE"/>
<defs>
<linearGradient id="paint0_linear_6975_181530" x1="83.966" y1="1714.57" x2="37.2727" y2="1714.57" gradientUnits="userSpaceOnUse">
<stop stop-opacity="0.04"/>
<stop offset="1" stop-opacity="0"/>
</linearGradient>
<linearGradient id="paint1_linear_6975_181530" x1="1403.02" y1="1714.57" x2="1356.34" y2="1714.57" gradientUnits="userSpaceOnUse">
<stop stop-opacity="0.04"/>
<stop offset="1" stop-opacity="0"/>
</linearGradient>
<linearGradient id="paint2_linear_6975_181530" x1="707.927" y1="709.026" x2="707.919" y2="-873.039" gradientUnits="userSpaceOnUse">
<stop stop-color="white" stop-opacity="0"/>
<stop offset="1" stop-color="white"/>
</linearGradient>
</defs>
</svg>
